# xmcd
#
# Track frame offsets:
#	150
#	13785
#	23243
#	34763
#	43028
#	56108
#	71716
#	84459
#	94824
#	106359
#
# Disc length: 1547 seconds
#
# Revision: 1
# Processed by: cddbd v1.5.2PL0 Copyright (c) Steve Scherf et al.
# Submitted via: audiograbber 1.83.01
#
DISCID=8206090a
DTITLE=Earl Scruggs - Dueling Banjos
DYEAR=1981
DGENRE=Country
TTITLE0=String Bender
TTITLE1=Peking Fling
TTITLE2=Black Mountain Blues
TTITLE3=Just Joshin'
TTITLE4=Dueling Banjos
TTITLE5=Lonesome Ruben
TTITLE6=John Hardy
TTITLE7=Flint Hill Special
TTITLE8=Randy Lynn Rag
TTITLE9=Fireball Mail
EXTD=this is from my LP that i converted to CD
EXTT0=
EXTT1=
EXTT2=
EXTT3=
EXTT4=
EXTT5=
EXTT6=
EXTT7=
EXTT8=
EXTT9=
PLAYORDER=
